<svg width="65" height="58" viewBox="0 0 65 58" fill="none" xmlns="http://www.w3.org/2000/svg">
<path d="M43.6448 32.2532C46.8301 33.1865 47.945 34.1605 50.8787 35.3841C49.0315 36.3852 47.2617 37.663 45.8706 39.6568C44.4795 41.6507 44.387 42.2733 42.8101 44.7838C41.1396 47.4433 40.3407 49.2493 37.8021 51.0503C35.4291 52.7337 33.7004 53.1677 30.8465 53.6138C28.0518 54.0507 23.6126 53.329 23.6126 53.329C23.6126 53.329 27.0223 52.8197 29.1771 51.6232C30.8036 50.7201 32.1408 49.6385 33.3505 48.2052C34.7516 46.5451 34.9374 45.7502 36.1327 43.9293C37.5147 41.8239 40.0279 38.8022 40.0279 38.8022C40.0279 38.8022 37.4834 39.7413 36.1327 40.7993C34.8499 41.8042 33.1167 43.9184 31.9594 45.0719C30.8021 46.2255 29.1771 47.6784 27.2295 48.7715C25.1772 49.9234 21.665 51.0503 21.665 51.0503C21.665 51.0503 22.7808 41.6669 26.3949 37.378C28.524 34.8512 29.7395 33.9864 32.794 32.8216C36.5614 31.385 40.8626 31.438 43.6448 32.2532Z" stroke="white" stroke-width="1.92663"/>
<path d="M61.2769 26.5932C61.2769 36.336 55.6376 49.2996 43.2312 54.5772C32.9164 58.9651 24.3401 56.2737 21.52 55.143C18.6999 54.0123 16.3059 52.3895 14.7529 49.7723C13.0187 46.8497 12.745 44.3993 12.4902 41.0083C12.2162 37.3607 12.8935 35.3111 13.3361 31.6802C13.7007 28.6894 14.2669 27.0547 14.464 24.0482C14.6229 21.6248 15.0625 20.1827 14.464 17.8294C14.0137 16.0588 12.4902 13.5894 12.4902 13.5894C12.4902 13.5894 12.7438 17.7364 12.4902 20.3735C12.0982 24.4509 10.9257 26.5711 9.95257 30.5495C9.17021 33.748 8.68517 35.4565 8.5497 38.7469C8.33262 44.0192 11.6443 51.7497 11.6443 51.7497C11.6443 51.7497 7.20331 45.8686 5.15965 41.8571C3.30654 38.2197 2.2298 35.7393 1.77685 31.6802C1.5246 29.4197 1.25518 26.5238 2.34634 22.9183C3.31864 19.7056 3.47804 19.7472 4.88417 16.7001C6.08623 14.0952 6.85791 13.3085 7.98577 10.4814C8.57122 9.01385 9.11362 6.66399 9.11362 5.11066C9.11362 3.55734 8.82472 2 8.82472 2C8.82472 2 15.0418 5.39464 18.9824 8.50268C22.9978 11.6699 26.0267 14.7631 27.1593 18.3961C28.5691 22.9183 28.5691 25.4623 26.5954 29.7024C25.0792 32.9595 22.7532 35.5855 21.2311 39.0304C19.4788 42.9964 18.8334 45.1714 18.4115 49.4883" stroke="white" stroke-width="1.92663"/>
<circle cx="61.4605" cy="26.4159" r="1.60171" fill="white" stroke="white" stroke-width="1.99011"/>
<circle cx="18.7263" cy="47.5889" r="1.27712" fill="white" stroke="white" stroke-width="1.99011"/>
</svg>
